<?xml version="1.0" standalone="no"?>
<!DOCTYPE svg PUBLIC "-//W3C//DTD SVG 20010904//EN"
 "http://www.w3.org/TR/2001/REC-SVG-20010904/DTD/svg10.dtd">
<svg version="1.0" xmlns="http://www.w3.org/2000/svg"
 width="512.000000pt" height="512.000000pt" viewBox="0 0 512.000000 512.000000"
 preserveAspectRatio="xMidYMid meet">
<metadata>
Created by potrace 1.14, written by Peter Selinger 2001-2017
</metadata>
<g transform="translate(0.000000,512.000000) scale(0.100000,-0.100000)"
fill="#000000" stroke="none">
<path d="M2098 5115 c-2 -1 -86 -6 -188 -9 -102 -4 -203 -9 -225 -10 -22 -2
-94 -7 -160 -11 -66 -3 -131 -8 -145 -10 -14 -2 -65 -6 -115 -9 -49 -4 -106
-9 -125 -11 -19 -3 -64 -7 -100 -10 -156 -13 -235 -28 -331 -60 -302 -103
-538 -368 -603 -678 -16 -73 -21 -112 -31 -227 -3 -36 -8 -85 -10 -110 -2 -25
-7 -72 -10 -105 -3 -33 -8 -85 -10 -115 -2 -30 -6 -98 -10 -150 -24 -356 -30
-552 -30 -1050 0 -405 6 -644 20 -860 1 -25 6 -101 10 -170 4 -69 9 -132 10
-141 2 -9 6 -59 10 -110 3 -52 8 -112 10 -134 3 -22 7 -65 10 -95 16 -166 21
-197 42 -275 27 -102 113 -271 164 -325 8 -8 29 -33 48 -54 121 -142 356 -268
540 -291 30 -4 62 -8 72 -10 9 -2 52 -6 96 -10 43 -4 94 -8 113 -10 31 -3 130
-11 240 -20 370 -30 654 -39 1180 -40 406 0 607 5 875 20 108 6 258 16 288 20
18 2 76 6 130 10 54 4 108 8 120 10 12 2 54 7 92 10 108 8 154 14 232 31 309
65 575 301 677 602 34 100 46 164 61 332 2 25 6 68 9 95 3 28 8 86 11 130 3
44 8 96 10 115 2 19 7 89 11 155 3 66 8 136 9 155 26 281 26 1492 0 1740 -2
19 -6 87 -10 150 -3 63 -8 131 -9 150 -2 19 -7 76 -11 125 -3 50 -8 108 -10
130 -2 22 -7 67 -10 100 -3 33 -8 80 -11 105 -35 334 -236 620 -536 760 -128
60 -225 79 -528 105 -36 3 -81 7 -100 10 -19 2 -78 7 -130 10 -52 3 -115 8
-140 10 -25 2 -103 7 -175 10 -71 4 -155 9 -185 12 -63 4 -1137 13 -1142 8z"/>
</g>
</svg>
